# xmcd CD database file
#
# Track frame offsets:
#	150
#	14922
#	30287
#
# Disc length: 599 seconds
#
# Revision: 2
# Processed by: cddbd v1.5.2PL0 Copyright (c) Steve Scherf et al.
# Submitted via: CDex 1.70beta2
#
DISCID=1b025503
DTITLE=Okaimono-Kuma - Okaimono No Uta
DYEAR=2002
DGENRE=Pop
TTITLE0=Okaimono No Uta
TTITLE1=Okaimono CM Song Medley
TTITLE2=Okaimono No Uta Karaoke
EXTD=YEAR: 2002
EXTT0=
EXTT1=
EXTT2=
PLAYORDER=
